 <svg
        width="214"
        height="256"
        viewBox="0 0 214 256"
        fill="none"
        xmlns="http://www.w3.org/2000/svg"
      >
        <g>
          <path
            d="M92.888 61.559C100.14 61.559 106.018 55.6919 106.018 48.4545C106.018 41.2171 100.14 35.35 92.888 35.35C85.6364 35.35 79.7578 41.2171 79.7578 48.4545C79.7578 55.6919 85.6364 61.559 92.888 61.559Z"
            fill="#0a66c2"></path>
          <path
            d="M97.2188 17.5558C102.076 17.5558 106.014 13.6258 106.014 8.778C106.014 3.93015 102.076 0.000198364 97.2188 0.000198364C92.3615 0.000198364 88.4238 3.93015 88.4238 8.778C88.4238 13.6258 92.3615 17.5558 97.2188 17.5558Z"
            fill="#0a66c2"></path>
          <path
            d="M123.803 44.1277C128.66 44.1277 132.598 40.1977 132.598 35.3499C132.598 30.502 128.66 26.5721 123.803 26.5721C118.945 26.5721 115.008 30.502 115.008 35.3499C115.008 40.1977 118.945 44.1277 123.803 44.1277Z"
            fill="#0a66c2"></path>

          <path
            d="M213.994 159.424C213.975 169.361 212.381 179.231 209.269 188.67C206.981 195.528 203.996 202.135 200.36 208.387C193.106 220.948 184.157 231.842 172.144 240.177C158.194 249.849 141.764 255.339 124.791 256C139.308 255.417 145.888 237.185 137.123 226.54C132.738 221.212 125.56 219.973 119.02 219.868C110.319 219.724 101.604 219.838 92.8989 219.868C84.4181 219.898 75.7528 220.411 67.2621 219.987C49.6307 219.084 32.9825 211.604 20.6164 199.028C8.25026 186.452 1.06857 169.699 0.494323 152.089C-0.0799222 134.478 5.99518 117.294 17.5159 103.943C29.0366 90.5914 45.1622 82.0463 62.6975 80.0008C70.9986 79.0449 79.4245 79.5029 87.7605 79.5029V114.017C83.0163 120.619 78.2372 127.196 73.5478 133.833C70.0957 138.712 66.5737 143.543 62.9818 148.326C60.0186 152.265 56.4467 155.844 54.4163 160.395C49.4276 171.563 57.9084 184.478 70.1007 184.478H141.713C154.444 184.478 162.9 170.293 156.774 159.135C154.778 155.531 152.044 152.449 149.605 149.178C141.708 138.533 134.14 127.644 126.378 116.884C125.994 116.347 124.607 115.022 124.552 114.34C124.552 102.734 124.612 91.1237 124.612 79.5179H136.849C145.644 79.5179 154.22 80.0157 162.675 82.5948C170.001 84.8335 176.911 88.2545 183.129 92.7219C189.705 97.4537 195.42 103.275 200.025 109.934C209.232 124.798 214.072 141.944 213.994 159.419V159.424Z"
            fill="#0a66c2"></path>

          <path
            d="M78.7941 176.154C83.6543 176.154 87.5942 172.222 87.5942 167.371C87.5942 162.521 83.6543 158.588 78.7941 158.588C73.934 158.588 69.9941 162.521 69.9941 167.371C69.9941 172.222 73.934 176.154 78.7941 176.154Z"
            fill="#0a66c2"></path>

          <path
            class="dl-logo-colon"
            d="M106.196 176.154C111.057 176.154 114.997 172.222 114.997 167.371C114.997 162.521 111.057 158.588 106.196 158.588C101.336 158.588 97.3965 162.521 97.3965 167.371C97.3965 172.222 101.336 176.154 106.196 176.154Z"
            fill="#0a66c2"></path>
          <path
            d="M133.413 176.154C138.273 176.154 142.213 172.222 142.213 167.371C142.213 162.521 138.273 158.588 133.413 158.588C128.553 158.588 124.613 162.521 124.613 167.371C124.613 172.222 128.553 176.154 133.413 176.154Z"
            fill="#0a66c2"></path>
        </g>
      </svg>